<svg width="341" height="108" viewBox="0 0 341 108" fill="none" xmlns="http://www.w3.org/2000/svg">
<path d="M31.5625 49.375H30.75V1.3125H50.6875V49.375H49.875V91.8125H31.5625V49.375ZM2.9375 13.4375H101.062V30.3125H2.9375V13.4375ZM62.4375 91.5625C66.8542 90.5208 70.6042 89 73.6875 87C76.8125 85 79.1875 82.6042 80.8125 79.8125C82.4375 77.0208 83.25 73.8958 83.25 70.4375C83.25 66.6875 82.2292 63.4583 80.1875 60.75C78.1875 58 75.25 55.9167 71.375 54.5C67.5417 53.0417 63 52.3125 57.75 52.3125C50.25 52.3125 43.6875 53.3958 38.0625 55.5625C32.4792 57.7292 28.125 60.8333 25 64.875C21.9167 68.9167 20.375 73.625 20.375 79C20.3333 80.875 20.5208 82.4375 20.9375 83.6875C21.3542 84.9375 21.9792 85.8958 22.8125 86.5625C23.6875 87.1875 24.7708 87.5 26.0625 87.5C29.2292 87.5 33.375 85.7292 38.5 82.1875C43.6667 78.6042 49.1875 73.7292 55.0625 67.5625C60.9375 61.3542 66.5833 54.4375 72 46.8125L86.1875 56.75C79.3958 66.625 72.3125 75.1667 64.9375 82.375C57.5625 89.5833 50.25 95.1458 43 99.0625C35.75 102.938 29.0208 104.875 22.8125 104.875C18.3125 104.875 14.3958 103.854 11.0625 101.812C7.72917 99.8125 5.1875 96.9167 3.4375 93.125C1.6875 89.3333 0.8125 84.8542 0.8125 79.6875C0.8125 71.3125 3.08333 63.8125 7.625 57.1875C12.2083 50.5208 18.5625 45.3333 26.6875 41.625C34.8125 37.9167 44.0417 36.0625 54.375 36.0625C64.7083 36.0625 73.5417 37.3958 80.875 40.0625C88.2083 42.7292 93.75 46.6667 97.5 51.875C101.292 57.0417 103.188 63.2708 103.188 70.5625C103.188 76.6042 101.792 82.2083 99 87.375C96.2083 92.5417 92.2917 96.9375 87.25 100.562C82.25 104.146 76.5 106.562 70 107.812L62.4375 91.5625ZM115.438 101.25L153.438 2.0625L173 7.75L153.625 57.4375L146.812 53.4375C151.521 50.2708 155.875 47.9167 159.875 46.375C163.917 44.8333 167.667 44.0625 171.125 44.0625C174.958 44.0625 178.167 45 180.75 46.875C183.375 48.7083 185.562 51.6458 187.312 55.6875C189.104 59.6875 190.729 65.0833 192.188 71.875C192.854 74.9167 193.5 77.2917 194.125 79C194.792 80.7083 195.521 81.9792 196.312 82.8125C197.146 83.6458 198.167 84.0625 199.375 84.0625C200.958 84.0625 202.396 83.2292 203.688 81.5625C205.021 79.8958 206.292 77.2708 207.5 73.6875C208.75 70.0625 210.062 65.1875 211.438 59.0625L229.812 65.25C227.938 74.6667 225.625 82.2292 222.875 87.9375C220.125 93.6458 216.729 97.8542 212.688 100.562C208.688 103.271 203.854 104.625 198.188 104.625C193.479 104.625 189.5 103.667 186.25 101.75C183.042 99.875 180.333 96.9583 178.125 93C175.917 89.0417 174.042 83.8125 172.5 77.3125C171.667 74.1458 170.854 71.6667 170.062 69.875C169.312 68.0417 168.396 66.7083 167.312 65.875C166.229 65.0417 164.938 64.625 163.438 64.625C161.646 64.625 159.604 65.1667 157.312 66.25C155.021 67.2917 152.562 69.3125 149.938 72.3125C147.354 75.2708 145.042 79.3958 143 84.6875L133.938 107.938L115.438 101.25ZM297.062 106.812C287.062 106.812 278.396 105.792 271.062 103.75C263.771 101.75 258.167 98.8542 254.25 95.0625C250.375 91.2708 248.417 86.75 248.375 81.5C248.375 79.0833 248.792 76.6875 249.625 74.3125C250.458 71.8958 251.646 69.6875 253.188 67.6875C254.729 65.6875 256.542 64.0208 258.625 62.6875L278.125 68.3125C275.958 70.0208 274.271 71.875 273.062 73.875C271.854 75.8333 271.292 77.6667 271.375 79.375C271.333 81.4167 272.208 83.125 274 84.5C275.792 85.8333 278.479 86.8542 282.062 87.5625C285.688 88.2292 290.167 88.5625 295.5 88.5625C301.083 88.6042 307.188 88.2292 313.812 87.4375C320.438 86.6458 326.729 85.5625 332.688 84.1875L335.438 102.5C329.188 103.875 322.771 104.938 316.188 105.688C309.604 106.479 303.229 106.854 297.062 106.812ZM243.125 41.0625L341 38.6875V56L243.125 58.375V41.0625ZM305.062 79.75C301.729 71.9167 298.812 63.625 296.312 54.875C293.854 46.0833 291.812 37.1458 290.188 28.0625C288.604 18.9375 287.562 9.95833 287.062 1.125L308.062 0.0625C308.521 8.52083 309.5 16.9167 311 25.25C312.542 33.5417 314.604 41.8542 317.188 50.1875C319.812 58.4792 322.979 66.8333 326.688 75.25L305.062 79.75ZM244.375 14.5625L339.75 12.1875V29.375L244.375 31.75V14.5625Z" fill="url(#paint0_linear_3_4)"/>
<defs>
<linearGradient id="paint0_linear_3_4" x1="-21.3594" y1="45.0682" x2="389.649" y2="155.65" gradientUnits="userSpaceOnUse">
<stop stop-color="#00BDF9"/>
<stop offset="1" stop-color="#5C0FFF"/>
</linearGradient>
</defs>
</svg>
