<svg width="361" height="121" viewBox="0 0 361 121" fill="none" xmlns="http://www.w3.org/2000/svg">
<path d="M39.7015 62.536H81.0455V68.552H39.7015V62.536ZM39.7015 77.128H81.0455V83.272H39.7015V77.128ZM39.7015 48.072H81.0455V53.96H39.7015V48.072ZM25.6215 38.856V92.36H95.8935V38.856H25.6215ZM38.4215 88.776C36.2455 99.912 30.9975 104.904 0.7895 107.464C3.6055 110.664 7.1895 117.064 8.4695 120.776C43.5415 116.168 51.2215 106.44 54.0375 88.776H38.4215ZM66.4535 88.648V102.728C66.4535 115.528 69.9095 119.752 85.2695 119.752C88.3415 119.752 99.3495 119.752 102.55 119.752C113.942 119.752 118.166 116.04 119.83 100.296C115.606 99.4 109.206 97.224 106.262 94.92C105.878 104.904 104.982 106.312 101.014 106.312C98.1975 106.312 89.4935 106.312 87.3175 106.312C82.4535 106.312 81.6855 105.928 81.6855 102.6V88.648H66.4535ZM6.1655 20.68V48.968H20.1175V33.224H101.142V48.968H115.862V20.68H6.1655ZM91.1575 0.967995C88.4695 7.11199 83.3495 15.304 78.9975 20.808L91.5415 25.416C96.2775 20.68 102.166 13.256 107.67 5.95999L91.1575 0.967995ZM13.2055 8.008C17.5575 12.872 22.1655 19.912 24.0855 24.392L38.1655 17.992C35.8615 13.384 30.7415 6.856 26.3895 2.12L13.2055 8.008ZM45.8455 4.936C49.4295 10.312 53.3975 17.608 54.8055 22.344L69.0135 17.096C67.2215 12.488 62.9975 5.31999 59.4135 0.199997L45.8455 4.936ZM164.374 5.31999L161.814 20.168C177.174 22.6 200.982 25.416 214.422 26.568L216.47 11.464C203.286 10.696 178.71 8.008 164.374 5.31999ZM221.078 45.896L211.606 35.272C210.326 35.784 206.742 36.552 204.438 36.808C193.686 38.088 164.758 39.368 158.614 39.496C154.006 39.496 149.398 39.368 146.454 39.112L147.862 56.776C150.55 56.264 154.518 55.624 158.998 55.24C166.294 54.6 181.526 53.32 190.486 53.064C178.838 65.352 152.726 91.336 146.07 97.992C142.614 101.32 139.542 104.008 137.238 106.056L152.342 116.552C161.174 105.416 170.774 94.92 175.254 90.44C178.326 87.24 181.014 85.192 183.574 85.192C186.262 85.192 188.95 86.856 190.358 91.464C191.382 94.664 192.79 100.68 194.198 104.52C197.27 112.712 203.926 115.4 215.958 115.4C222.614 115.4 235.798 114.504 241.046 113.608L242.198 96.84C235.67 98.12 226.838 99.016 217.11 99.016C212.118 99.016 209.302 97.096 208.022 93.128C206.998 89.672 205.59 84.808 204.438 81.48C202.646 76.616 200.342 73.8 196.757 72.776C195.222 72.136 192.918 71.752 191.766 71.752C194.838 68.552 206.87 57.416 212.63 52.424C214.934 50.504 217.622 48.2 221.078 45.896ZM276.723 11.592L277.235 28.232C280.179 27.72 284.147 27.464 287.603 27.208C294.515 26.696 312.179 26.056 318.707 25.8C312.435 31.432 298.995 42.184 291.827 48.072C284.403 54.344 268.915 67.4 259.827 74.568L271.475 86.6C285.171 71.112 297.843 60.616 317.555 60.616C332.531 60.616 344.051 68.424 344.051 80.072C344.051 93.768 333.043 101.96 311.411 101.96C303.603 101.96 298.355 98.76 298.355 94.024C298.355 90.696 301.555 87.752 306.291 87.752C313.843 87.752 318.707 94.152 318.963 103.368L333.939 101.448C333.555 87.368 323.826 75.592 306.291 75.592C292.723 75.592 283.251 85.064 283.251 95.432C283.251 108.36 296.691 116.424 314.483 116.424C345.459 116.424 360.819 100.424 360.819 80.2C360.819 61.64 344.307 48.072 322.547 48.072C318.579 48.072 314.739 48.328 310.387 49.48C318.579 43.08 332.019 31.816 338.931 26.952C341.747 24.776 344.819 22.984 347.763 21.064L339.571 9.544C338.035 10.056 335.091 10.568 329.715 10.952C322.419 11.592 295.155 12.232 288.243 12.232C284.659 12.232 280.307 11.976 276.723 11.592Z" fill="url(#paint0_linear_32_3)"/>
<defs>
<linearGradient id="paint0_linear_32_3" x1="-18.1387" y1="51.5" x2="413.767" y2="173.685" gradientUnits="userSpaceOnUse">
<stop stop-color="#00BDF9"/>
<stop offset="1" stop-color="#5C0FFF"/>
</linearGradient>
</defs>
</svg>
