<svg width="258" height="258" viewBox="0 0 258 258" fill="none" xmlns="http://www.w3.org/2000/svg">
<rect width="258" height="258" fill="white"/>
<path d="M128.2 41.2L102.2 40.4C102.4 44 102 48.6 101.6 52.6C99.4 72.4 95.8 101.8 95.8 128C95.8 157.4 101.6 187 107.6 205L130.6 198.2C124 178 118.2 155.6 118.2 124C118.2 99.2 121.6 70.4 125.4 51.8C126.2 48.6 127 45 128.2 41.2ZM92.4 63.2C80.2 63.2 62.8 61.6 55.6 60.6L56.2 83.6C65.6 84 81.2 85 91.8 85C122 85 164 82 191.4 77L191.2 54C160.6 61.4 130.4 63.2 92.4 63.2ZM178.8 92.6L154.2 86.6C154 91 152.6 99.6 151.2 103.8C143.2 131.4 129.6 149.2 115 162.6C102.8 174 89.4 180.6 80 180.6C73.4 180.6 70.8 177.2 70.8 170.6C70.8 157.2 85 138 105 128.6C114.8 124.2 129.2 119 147.4 119C174.4 119 189 133.4 189 150.4C189 170.2 173.2 189.6 134.6 193.8L148 215C197 207.4 213.8 180 213.8 151.6C213.8 120.4 186.2 98.8 148.8 98.8C133.8 98.8 117.4 101.8 104.2 106.6C72.4 118.2 47.2 147.6 47.2 175.8C47.2 196.2 59.4 205 74 205C91.4 205 108.8 196.2 121.8 186.6C140.8 172.6 161.4 145.6 172.8 109.6C174.2 105.4 177.2 96.2 178.8 92.6Z" fill="url(#paint0_linear_36_4)"/>
<defs>
<linearGradient id="paint0_linear_36_4" x1="57" y1="181" x2="208" y2="64.5" gradientUnits="userSpaceOnUse">
<stop stop-color="#00BDF9"/>
<stop offset="1" stop-color="#5C0FFF"/>
</linearGradient>
</defs>
</svg>
